<svg xmlns="http://www.w3.org/2000/svg" xmlns:xlink="http://www.w3.org/1999/xlink" contentStyleType="text/css" data-diagram-type="DESCRIPTION" height="602px" preserveAspectRatio="none" style="width:2709px;height:602px;" version="1.1" viewBox="0 0 2709 602" width="2709px" zoomAndPan="magnify"><?plantuml 1.2026.3beta6?><defs/><g><g class="title" data-source-line="1"><text fill="#000000" font-family="Monospace" font-size="14" font-weight="700" lengthAdjust="spacing" textLength="173.1064" x="1264.8008" y="22.9951">dps-wiki-llm&#160;workflow</text></g><!--entity rawEvent--><g class="entity" data-qualified-name="rawEvent" data-source-line="25" id="ent0002"><ellipse cx="44.3905" cy="74.7769" fill="#F1F1F1" rx="8" ry="8" style="stroke:#181818;stroke-width:0.5;"/><path d="M44.3905,82.7769 L44.3905,109.7769 M31.3905,90.7769 L57.3905,90.7769 M44.3905,109.7769 L31.3905,124.7769 M44.3905,109.7769 L57.3905,124.7769" fill="none" style="stroke:#181818;stroke-width:0.5;"/><text fill="#000000" font-family="Monospace" font-size="14" lengthAdjust="spacing" textLength="74.0811" x="7.35" y="139.272">Raw&#160;event</text></g><!--entity userQuery--><g class="entity" data-qualified-name="userQuery" data-source-line="26" id="ent0003"><ellipse cx="44.3872" cy="247.7769" fill="#F1F1F1" rx="8" ry="8" style="stroke:#181818;stroke-width:0.5;"/><path d="M44.3872,255.7769 L44.3872,282.7769 M31.3872,263.7769 L57.3872,263.7769 M44.3872,282.7769 L31.3872,297.7769 M44.3872,282.7769 L57.3872,297.7769" fill="none" style="stroke:#181818;stroke-width:0.5;"/><text fill="#000000" font-family="Monospace" font-size="14" lengthAdjust="spacing" textLength="76.7744" x="6" y="312.272">User&#160;query</text></g><!--entity raw--><g class="entity" data-qualified-name="raw" data-source-line="28" id="ent0004"><rect fill="#E7F5FF" height="52.5938" rx="8" ry="8" style="stroke:#2E4053;stroke-width:0.5;" width="113.9258" x="163.04" y="78.1369"/><text fill="#000000" font-family="Monospace" font-size="14" lengthAdjust="spacing" textLength="44.502" x="173.04" y="101.132">raw/**</text><text fill="#000000" font-family="Monospace" font-size="14" lengthAdjust="spacing" textLength="93.9258" x="173.04" y="117.4289">Event&#160;stream</text></g><!--entity n8n--><g class="entity" data-qualified-name="n8n" data-source-line="29" id="ent0005"><rect fill="#FFF3BF" height="52.5938" rx="8" ry="8" style="stroke:#2E4053;stroke-width:0.5;" width="109.4893" x="511.01" y="78.1369"/><text fill="#000000" font-family="Monospace" font-size="14" lengthAdjust="spacing" textLength="78.3809" x="521.01" y="101.132">n8n&#160;trigger</text><text fill="#000000" font-family="Monospace" font-size="14" lengthAdjust="spacing" textLength="89.4893" x="521.01" y="117.4289">(raw/**&#160;only)</text></g><!--entity ingest--><g class="entity" data-qualified-name="ingest" data-source-line="30" id="ent0006"><rect fill="#FFF3BF" height="52.5938" rx="8" ry="8" style="stroke:#2E4053;stroke-width:0.5;" width="209.4102" x="811.28" y="118.1369"/><text fill="#000000" font-family="Monospace" font-size="14" lengthAdjust="spacing" textLength="124.168" x="821.28" y="141.132">ingest-source.ts</text><text fill="#000000" font-family="Monospace" font-size="14" lengthAdjust="spacing" textLength="189.4102" x="821.28" y="157.4289">normalized&#160;source&#160;payload</text></g><!--entity planner--><g class="entity" data-qualified-name="planner" data-source-line="31" id="ent0007"><rect fill="#FFF3BF" height="52.5938" rx="8" ry="8" style="stroke:#2E4053;stroke-width:0.5;" width="155.0303" x="1248.44" y="119.1369"/><text fill="#000000" font-family="Monospace" font-size="14" lengthAdjust="spacing" textLength="85.5996" x="1258.44" y="142.132">LLM&#160;planner</text><text fill="#000000" font-family="Monospace" font-size="14" lengthAdjust="spacing" textLength="135.0303" x="1258.44" y="158.4289">Mutation&#160;Plan&#160;JSON</text></g><!--entity apply--><g class="entity" data-qualified-name="apply" data-source-line="32" id="ent0008"><rect fill="#DFF3E4" height="52.5938" rx="8" ry="8" style="stroke:#2E4053;stroke-width:0.5;" width="187.7881" x="1775.16" y="289.1369"/><text fill="#000000" font-family="Monospace" font-size="14" lengthAdjust="spacing" textLength="122.1787" x="1785.16" y="312.132">apply-update.ts</text><text fill="#000000" font-family="Monospace" font-size="14" lengthAdjust="spacing" textLength="167.7881" x="1785.16" y="328.4289">idempotent&#160;file&#160;updates</text></g><!--entity reindex--><g class="entity" data-qualified-name="reindex" data-source-line="33" id="ent0009"><rect fill="#FFF3BF" height="52.5938" rx="8" ry="8" style="stroke:#2E4053;stroke-width:0.5;" width="148.8848" x="2284.57" y="382.1369"/><text fill="#000000" font-family="Monospace" font-size="14" lengthAdjust="spacing" textLength="82.1885" x="2294.57" y="405.132">reindex.ts</text><text fill="#000000" font-family="Monospace" font-size="14" lengthAdjust="spacing" textLength="128.8848" x="2294.57" y="421.4289">SQLite&#160;FTS&#160;rebuild</text></g><!--entity commit--><g class="entity" data-qualified-name="commit" data-source-line="34" id="ent0010"><rect fill="#FFF3BF" height="52.5938" rx="8" ry="8" style="stroke:#2E4053;stroke-width:0.5;" width="193.5781" x="2502.13" y="431.1369"/><text fill="#000000" font-family="Monospace" font-size="14" lengthAdjust="spacing" textLength="82.1885" x="2512.13" y="454.132">commit.ts</text><text fill="#000000" font-family="Monospace" font-size="14" lengthAdjust="spacing" textLength="173.5781" x="2512.13" y="470.4289">change&#160;log&#160;+&#160;git&#160;commit</text></g><!--entity db--><g class="entity" data-qualified-name="db" data-source-line="36" id="ent0011"><path d="M2549.22,283.6369 C2549.22,273.6369 2598.9197,273.6369 2598.9197,273.6369 C2598.9197,273.6369 2648.6194,273.6369 2648.6194,283.6369 L2648.6194,325.2306 C2648.6194,335.2306 2598.9197,335.2306 2598.9197,335.2306 C2598.9197,335.2306 2549.22,335.2306 2549.22,325.2306 L2549.22,283.6369" fill="#E7F5FF" style="stroke:#181818;stroke-width:0.5;"/><path d="M2549.22,283.6369 C2549.22,293.6369 2598.9197,293.6369 2598.9197,293.6369 C2598.9197,293.6369 2648.6194,293.6369 2648.6194,283.6369" fill="none" style="stroke:#181818;stroke-width:0.5;"/><text fill="#000000" font-family="Monospace" font-size="14" lengthAdjust="spacing" textLength="79.3994" x="2559.22" y="310.632">state/kb.db</text><text fill="#000000" font-family="Monospace" font-size="14" lengthAdjust="spacing" textLength="68.4893" x="2559.22" y="326.9289">FTS&#160;index</text></g><!--entity wiki--><g class="entity" data-qualified-name="wiki" data-source-line="37" id="ent0012"><path d="M2279.4,276.1369 L2320.4,276.1369 A3.75,3.75 0 0 1 2322.9,278.6369 L2329.9,297.1369 L2438.6305,297.1369 A2.5,2.5 0 0 1 2441.1305,299.6369 L2441.1305,344.2306 A2.5,2.5 0 0 1 2438.6305,346.7306 L2279.4,346.7306 A2.5,2.5 0 0 1 2276.9,344.2306 L2276.9,278.6369 A2.5,2.5 0 0 1 2279.4,276.1369" fill="#E7F5FF" style="stroke:#181818;stroke-width:0.5;"/><line style="stroke:#181818;stroke-width:0.5;" x1="2276.9" x2="2329.9" y1="297.1369" y2="297.1369"/><text fill="#000000" font-family="Monospace" font-size="14" lengthAdjust="spacing" textLength="32.0537" x="2286.9" y="317.132">wiki/</text><text fill="#000000" font-family="Monospace" font-size="14" lengthAdjust="spacing" textLength="134.2305" x="2286.9" y="333.4289">curated&#160;knowledge</text></g><!--entity outputs--><g class="entity" data-qualified-name="outputs" data-source-line="38" id="ent0013"><path d="M847.13,278.1369 L888.13,278.1369 A3.75,3.75 0 0 1 890.63,280.6369 L897.63,299.1369 L984.8478,299.1369 A2.5,2.5 0 0 1 987.3478,301.6369 L987.3478,346.2306 A2.5,2.5 0 0 1 984.8478,348.7306 L847.13,348.7306 A2.5,2.5 0 0 1 844.63,346.2306 L844.63,280.6369 A2.5,2.5 0 0 1 847.13,278.1369" fill="#E7F5FF" style="stroke:#181818;stroke-width:0.5;"/><line style="stroke:#181818;stroke-width:0.5;" x1="844.63" x2="897.63" y1="299.1369" y2="299.1369"/><text fill="#000000" font-family="Monospace" font-size="14" lengthAdjust="spacing" textLength="58.1875" x="854.63" y="319.132">outputs/</text><text fill="#000000" font-family="Monospace" font-size="14" lengthAdjust="spacing" textLength="112.7178" x="854.63" y="335.4289">answer&#160;artifacts</text></g><!--entity search--><g class="entity" data-qualified-name="search" data-source-line="40" id="ent0014"><rect fill="#FFF3BF" height="52.5938" rx="8" ry="8" style="stroke:#2E4053;stroke-width:0.5;" width="152.46" x="143.77" y="251.1369"/><text fill="#000000" font-family="Monospace" font-size="14" lengthAdjust="spacing" textLength="76.084" x="153.77" y="274.132">search.ts</text><text fill="#000000" font-family="Monospace" font-size="14" lengthAdjust="spacing" textLength="132.46" x="153.77" y="290.4289">retrieve&#160;top-k&#160;docs</text></g><!--entity answer--><g class="entity" data-qualified-name="answer" data-source-line="41" id="ent0015"><rect fill="#FFF3BF" height="36.2969" rx="8" ry="8" style="stroke:#2E4053;stroke-width:0.5;" width="173.0498" x="479.23" y="281.2769"/><text fill="#000000" font-family="Monospace" font-size="14" lengthAdjust="spacing" textLength="153.0498" x="489.23" y="304.272">LLM&#160;answer&#160;synthesis</text></g><!--entity feedback--><g class="entity" data-qualified-name="feedback" data-source-line="42" id="ent0016"><rect fill="#DFF3E4" height="52.5938" rx="8" ry="8" style="stroke:#2E4053;stroke-width:0.5;" width="258.5195" x="1196.69" y="293.1369"/><text fill="#000000" font-family="Monospace" font-size="14" lengthAdjust="spacing" textLength="143.9102" x="1206.69" y="316.132">feedback-record.ts</text><text fill="#000000" font-family="Monospace" font-size="14" lengthAdjust="spacing" textLength="238.5195" x="1206.69" y="332.4289">feedback&#160;decision&#160;+&#160;optional&#160;plan</text></g><g class="entity" data-qualified-name="GMN33" data-source-line="63" id="ent0034"><path d="M825.82,43.2969 L825.82,69.9569 L620.79,98.0669 L825.82,77.9569 L825.82,83.5625 A0,0 0 0 0 825.82,83.5625 L1006.1525,83.5625 A0,0 0 0 0 1006.1525,83.5625 L1006.1525,53.2969 L996.1525,43.2969 L825.82,43.2969 A0,0 0 0 0 825.82,43.2969" fill="#FFF9DB" style="stroke:#C9A227;stroke-width:0.5;"/><path d="M996.1525,43.2969 L996.1525,53.2969 L1006.1525,53.2969 L996.1525,43.2969" fill="#FFF9DB" style="stroke:#C9A227;stroke-width:0.5;"/><text fill="#000000" font-family="Monospace" font-size="13" lengthAdjust="spacing" textLength="148.9541" x="831.82" y="60.3638">ONLY&#160;trigger&#160;on&#160;raw/**</text><text fill="#000000" font-family="Monospace" font-size="13" lengthAdjust="spacing" textLength="159.3325" x="831.82" y="75.4966">NEVER&#160;trigger&#160;on&#160;wiki/**</text></g><g class="entity" data-qualified-name="GMN36" data-source-line="68" id="ent0037"><path d="M1694.21,376.2969 L1694.21,416.5625 A0,0 0 0 0 1694.21,416.5625 L2043.8916,416.5625 A0,0 0 0 0 2043.8916,416.5625 L2043.8916,386.2969 L2033.8916,376.2969 L1873.05,376.2969 L1869.05,341.8669 L1865.05,376.2969 L1694.21,376.2969 A0,0 0 0 0 1694.21,376.2969" fill="#FFF9DB" style="stroke:#C9A227;stroke-width:0.5;"/><path d="M2033.8916,376.2969 L2033.8916,386.2969 L2043.8916,386.2969 L2033.8916,376.2969" fill="#FFF9DB" style="stroke:#C9A227;stroke-width:0.5;"/><text fill="#000000" font-family="Monospace" font-size="13" lengthAdjust="spacing" textLength="288.7168" x="1700.21" y="393.3638">Consumes&#160;the&#160;canonical&#160;Mutation&#160;Plan&#160;JSON</text><text fill="#000000" font-family="Monospace" font-size="13" lengthAdjust="spacing" textLength="328.6816" x="1700.21" y="408.4966">and&#160;preserves&#160;idempotency&#160;keys&#160;in&#160;state/runtime.</text></g><!--link rawEvent to raw--><g class="link" data-entity-1="ent0002" data-entity-2="ent0004" data-link-type="dependency" data-source-line="44" id="lnk17"><path d="M81.78,104.4269 C105.25,104.4269 130.24,104.4269 156.83,104.4269" fill="none" id="rawEvent-to-raw" style="stroke:#35485A;stroke-width:1;"/><polygon fill="#35485A" points="162.83,104.4269,153.83,100.4269,157.83,104.4269,153.83,108.4269,162.83,104.4269" style="stroke:#35485A;stroke-width:1;"/></g><!--link raw to n8n--><g class="link" data-entity-1="ent0004" data-entity-2="ent0005" data-link-type="dependency" data-source-line="45" id="lnk18"><path d="M277.38,104.4269 C341.95,104.4269 441,104.4269 504.62,104.4269" fill="none" id="raw-to-n8n" style="stroke:#35485A;stroke-width:1;"/><polygon fill="#35485A" points="510.62,104.4269,501.62,100.4269,505.62,104.4269,501.62,108.4269,510.62,104.4269" style="stroke:#35485A;stroke-width:1;"/><text fill="#000000" font-family="Monospace" font-size="13" lengthAdjust="spacing" textLength="60.9565" x="357.73" y="100.4938">file&#160;event</text></g><!--link n8n to ingest--><g class="link" data-entity-1="ent0005" data-entity-2="ent0006" data-link-type="dependency" data-source-line="46" id="lnk19"><path d="M620.79,110.6369 C671.41,116.4469 742.4893,124.6116 805.0293,131.8016" fill="none" id="n8n-to-ingest" style="stroke:#35485A;stroke-width:1;"/><polygon fill="#35485A" points="810.99,132.4869,802.5058,127.4851,806.0227,131.9158,801.592,135.4328,810.99,132.4869" style="stroke:#35485A;stroke-width:1;"/></g><!--link ingest to planner--><g class="link" data-entity-1="ent0006" data-entity-2="ent0007" data-link-type="dependency" data-source-line="47" id="lnk20"><path d="M1020.99,144.6869 C1091.81,144.8569 1178,145.0729 1242.2,145.2229" fill="none" id="ingest-to-planner" style="stroke:#35485A;stroke-width:1;"/><polygon fill="#35485A" points="1248.2,145.2369,1239.2094,141.2159,1243.2,145.2252,1239.1907,149.2158,1248.2,145.2369" style="stroke:#35485A;stroke-width:1;"/></g><!--link planner to apply--><g class="link" data-entity-1="ent0007" data-entity-2="ent0008" data-link-type="dependency" data-source-line="48" id="lnk21"><path d="M1403.91,169.6069 C1504.13,201.0969 1673.0659,254.1684 1777.1759,286.8784" fill="none" id="planner-to-apply" style="stroke:#35485A;stroke-width:1;"/><polygon fill="#35485A" points="1782.9,288.6769,1775.5128,282.1631,1778.1299,287.1782,1773.1149,289.7953,1782.9,288.6769" style="stroke:#35485A;stroke-width:1;"/><text fill="#000000" font-family="Monospace" font-size="13" lengthAdjust="spacing" textLength="89.21" x="1530.21" y="191.4938">Mutation&#160;Plan</text></g><!--link apply to wiki--><g class="link" data-entity-1="ent0008" data-entity-2="ent0012" data-link-type="dependency" data-source-line="49" id="lnk22"><path d="M1963.27,314.6669 C2053.87,313.9269 2184.0702,312.8562 2270.4702,312.1462" fill="none" id="apply-to-wiki" style="stroke:#35485A;stroke-width:1;"/><polygon fill="#35485A" points="2276.47,312.0969,2267.4374,308.171,2271.4702,312.138,2267.5032,316.1707,2276.47,312.0969" style="stroke:#35485A;stroke-width:1;"/><text fill="#000000" font-family="Monospace" font-size="13" lengthAdjust="spacing" textLength="149.1128" x="2085.9" y="307.4938">create&#160;or&#160;update&#160;notes</text></g><!--link apply to reindex--><g class="link" data-entity-1="ent0008" data-entity-2="ent0009" data-link-type="dependency" data-source-line="50" id="lnk23"><path d="M1963.27,333.1969 C2056.63,350.9869 2192.536,376.8939 2278.346,393.2439" fill="none" id="apply-to-reindex" style="stroke:#35485A;stroke-width:1;"/><polygon fill="#35485A" points="2284.24,394.3669,2276.1477,388.753,2279.3284,393.431,2274.6504,396.6117,2284.24,394.3669" style="stroke:#35485A;stroke-width:1;"/></g><!--link reindex to db--><g class="link" data-entity-1="ent0009" data-entity-2="ent0011" data-link-type="dependency" data-source-line="51" id="lnk24"><path d="M2421.28,381.6469 C2460.93,364.3169 2506.362,344.4494 2543.342,328.2894" fill="none" id="reindex-to-db" style="stroke:#35485A;stroke-width:1;"/><polygon fill="#35485A" points="2548.84,325.8869,2538.9913,325.8254,2544.2584,327.889,2542.1948,333.156,2548.84,325.8869" style="stroke:#35485A;stroke-width:1;"/></g><!--link reindex to commit--><g class="link" data-entity-1="ent0009" data-entity-2="ent0010" data-link-type="dependency" data-source-line="52" id="lnk25"><path d="M2433.66,423.5969 C2455.22,428.0369 2473.2337,431.7449 2495.9737,436.4349" fill="none" id="reindex-to-commit" style="stroke:#35485A;stroke-width:1;"/><polygon fill="#35485A" points="2501.85,437.6469,2493.8435,431.9114,2496.9531,436.6369,2492.2275,439.7465,2501.85,437.6469" style="stroke:#35485A;stroke-width:1;"/></g><!--link userQuery to search--><g class="link" data-entity-1="ent0003" data-entity-2="ent0014" data-link-type="dependency" data-source-line="54" id="lnk26"><path d="M83.06,277.4269 C100.81,277.4269 116.65,277.4269 137.59,277.4269" fill="none" id="userQuery-to-search" style="stroke:#35485A;stroke-width:1;"/><polygon fill="#35485A" points="143.59,277.4269,134.59,273.4269,138.59,277.4269,134.59,281.4269,143.59,277.4269" style="stroke:#35485A;stroke-width:1;"/></g><!--link search to db--><g class="link" data-entity-1="ent0014" data-entity-2="ent0011" data-link-type="dependency" data-source-line="55" id="lnk27"><path d="M296.59,258.6169 C365.88,243.0369 471.57,223.4269 564.76,223.4269 C564.76,223.4269 564.76,223.4269 2360.01,223.4269 C2428.29,223.4269 2496.6357,251.009 2543.6157,274.549" fill="none" id="search-to-db" style="stroke:#35485A;stroke-width:1;"/><polygon fill="#35485A" points="2548.98,277.2369,2542.7255,269.6289,2544.5098,274.997,2539.1417,276.7813,2548.98,277.2369" style="stroke:#35485A;stroke-width:1;"/><text fill="#000000" font-family="Monospace" font-size="13" lengthAdjust="spacing" textLength="65.3301" x="1293.45" y="219.4938">FTS&#160;query</text></g><!--link search to answer--><g class="link" data-entity-1="ent0014" data-entity-2="ent0015" data-link-type="dependency" data-source-line="56" id="lnk28"><path d="M296.44,282.2569 C350.3,285.7069 416.8423,289.9636 472.9223,293.5536" fill="none" id="search-to-answer" style="stroke:#35485A;stroke-width:1;"/><polygon fill="#35485A" points="478.91,293.9369,470.1839,289.3701,473.9202,293.6175,469.6728,297.3537,478.91,293.9369" style="stroke:#35485A;stroke-width:1;"/><text fill="#000000" font-family="Monospace" font-size="13" lengthAdjust="spacing" textLength="121.9385" x="327.23" y="280.4938">markdown&#160;context</text></g><!--link answer to outputs--><g class="link" data-entity-1="ent0015" data-entity-2="ent0013" data-link-type="dependency" data-source-line="57" id="lnk29"><path d="M652.39,302.8769 C711.4,305.2469 782.8748,308.1159 838.3448,310.3459" fill="none" id="answer-to-outputs" style="stroke:#35485A;stroke-width:1;"/><polygon fill="#35485A" points="844.34,310.5869,835.5079,306.2286,839.344,310.386,835.1866,314.2221,844.34,310.5869" style="stroke:#35485A;stroke-width:1;"/><text fill="#000000" font-family="Monospace" font-size="13" lengthAdjust="spacing" textLength="97.7412" x="683.28" y="299.4938">Answer&#160;Record</text></g><!--link outputs to feedback--><g class="link" data-entity-1="ent0013" data-entity-2="ent0016" data-link-type="dependency" data-source-line="58" id="lnk30"><path d="M987.59,314.4669 C1044.94,315.3069 1121.3506,316.4391 1190.3706,317.4491" fill="none" id="outputs-to-feedback" style="stroke:#35485A;stroke-width:1;"/><polygon fill="#35485A" points="1196.37,317.5369,1187.4295,313.4056,1191.3705,317.4637,1187.3124,321.4048,1196.37,317.5369" style="stroke:#35485A;stroke-width:1;"/><text fill="#000000" font-family="Monospace" font-size="13" lengthAdjust="spacing" textLength="114.1372" x="1051.69" y="311.4938">significant&#160;output</text></g><!--link feedback to apply--><g class="link" data-entity-1="ent0016" data-entity-2="ent0008" data-link-type="dependency" data-source-line="59" id="lnk31"><path d="M1455.53,318.4769 C1553.67,317.7569 1680.5902,316.8111 1768.7202,316.1611" fill="none" id="feedback-to-apply" style="stroke:#35485A;stroke-width:1;"/><polygon fill="#35485A" points="1774.72,316.1169,1765.6907,312.1834,1769.7201,316.1538,1765.7497,320.1831,1774.72,316.1169" style="stroke:#35485A;stroke-width:1;"/><text fill="#000000" font-family="Monospace" font-size="13" lengthAdjust="spacing" textLength="177.6963" x="1486.21" y="312.4938">propagate&#160;only&#160;if&#160;grounded</text></g><!--link feedback to commit--><g class="link" data-entity-1="ent0016" data-entity-2="ent0010" data-link-type="dependency" data-source-line="60" id="lnk32"><path d="M1392.96,346.1169 C1465.47,373.9969 1586,416.1669 1694.21,434.4269 C1984.96,483.4969 2329.689,473.2548 2495.759,464.1648" fill="none" id="feedback-to-commit" style="stroke:#35485A;stroke-width:1;"/><polygon fill="#35485A" points="2501.75,463.8369,2492.5448,460.3347,2496.7575,464.1101,2492.9821,468.3228,2501.75,463.8369" style="stroke:#35485A;stroke-width:1;"/><text fill="#000000" font-family="Monospace" font-size="13" lengthAdjust="spacing" textLength="171.0186" x="2074.9" y="465.4938">auditable&#160;feedback&#160;record</text></g><g class="legend" data-source-line="18"><rect fill="none" height="79.1875" rx="7.5" ry="7.5" style="stroke:#000000;stroke-width:1;" width="276.834" x="12" y="504.4969"/><text fill="#000000" font-family="Monospace" font-size="14" font-weight="700" lengthAdjust="spacing" textLength="41.2139" x="21.874" y="524.492">Color</text><text fill="#000000" font-family="Monospace" font-size="14" font-weight="700" lengthAdjust="spacing" textLength="67.6279" x="72.8359" y="524.492">Meaning</text><rect fill="#DFF3E4" height="16.2969" style="stroke:none;stroke-width:1;" width="50.9619" x="17" y="527.7938"/><text fill="#000000" font-family="Monospace" font-size="14" lengthAdjust="spacing" textLength="4.4502" x="17" y="540.7889">&#160;</text><text fill="#000000" font-family="Monospace" font-size="14" lengthAdjust="spacing" textLength="191.7275" x="72.4121" y="540.7889">Script&#160;available&#160;in&#160;this&#160;repo</text><rect fill="#FFF3BF" height="16.2969" style="stroke:none;stroke-width:1;" width="50.9619" x="17" y="544.0906"/><text fill="#000000" font-family="Monospace" font-size="14" lengthAdjust="spacing" textLength="4.4502" x="17" y="557.0857">&#160;</text><text fill="#000000" font-family="Monospace" font-size="14" lengthAdjust="spacing" textLength="206.9717" x="72.4121" y="557.0857">Planned&#160;workflow&#160;component</text><rect fill="#E7F5FF" height="16.2969" style="stroke:none;stroke-width:1;" width="50.9619" x="17" y="560.3875"/><text fill="#000000" font-family="Monospace" font-size="14" lengthAdjust="spacing" textLength="4.4502" x="17" y="573.3826">&#160;</text><text fill="#000000" font-family="Monospace" font-size="14" lengthAdjust="spacing" textLength="149.4063" x="72.4121" y="573.3826">Data&#160;or&#160;storage&#160;layer</text><line style="stroke:#000000;stroke-width:1;" x1="17" x2="283.834" y1="511.4969" y2="511.4969"/><line style="stroke:#000000;stroke-width:1;" x1="17" x2="283.834" y1="527.7938" y2="527.7938"/><line style="stroke:#000000;stroke-width:1;" x1="17" x2="283.834" y1="544.0906" y2="544.0906"/><line style="stroke:#000000;stroke-width:1;" x1="17" x2="283.834" y1="560.3875" y2="560.3875"/><line style="stroke:#000000;stroke-width:1;" x1="17" x2="283.834" y1="576.6844" y2="576.6844"/><line style="stroke:#000000;stroke-width:1;" x1="17" x2="17" y1="511.4969" y2="576.6844"/><line style="stroke:#000000;stroke-width:1;" x1="67.9619" x2="67.9619" y1="511.4969" y2="576.6844"/><line style="stroke:#000000;stroke-width:1;" x1="283.834" x2="283.834" y1="511.4969" y2="576.6844"/></g><?plantuml-src TLLBSzms3BxpLs3iIvlCsgqVJRBJPiQFrI5ZEustxKndVC6Ab9OLHQeavSssxdylI4YgdBWt2S27vmSmwcWKo2uiThhH2sDQs3dVLCRjX55LXEZ0wteRGMglogYT5I8qsdReiOKDbatjNM_bbJFEG_He0wcKZJEhi4NfTjhMKA49QgQHgiBUnCBPU8UjWbjd7U7BkSs5zsx7xWzFpy_Udb_Cb6JROAtMSKzbf0JHrcQEdcJmjm2uT5ugFpWxMPrzTtvAqdikm5lbuViVn3ypk7LnG7vHwM5H5E-kBx_qUVNkukJa3RcWxjNAIaXD54y_0UlfurQXJQru4ay_7buNnUdgxFqJh4klkmZuYDhWXhBL5k9M1yg_SsnB0Kyl2xBzsQ2rIaw3WjArdRFKSpPSlIdEYsHuZH61eeReF3K93EwfmYT1UN5sGc19EZYunnseH_9m04WnSRTAFwFsrq2mFtlbzrdTq--dz2V4Vzqz8D3ngrSFDYCff5VOZjvWo6bkRzzIXKIjMla7-msZmLcp_pQZadeeUOwYpgaG5y7rlbH7xH_XmLhdMpJwB-e8YuaKU-DGPZyCUCdLpSqjTBcLbC1j7p6HEpSNFgm_tcNqe7y9Zbrdzek-anY7HBHKD8UOogyqcR0kP4VP6ePvFskRqbQgp-nX_Ub64z-ANzOqzqsl3TSmsBoK1Os-rP7HvPQ4D6LNmskeTGHMPXVyENaGb1bkC927G8MhusPp93SFDaNEiJ98RgR1LSuGoU4WNObZ2jLxGabehDiP9MkLxPFoAuJhOzV7G20w3JkIe8-w8cPnOmRr19iN5nJwSil5UKLa8OhIGUeM3KXNCfvj_c--GyYmjt6hWXvcmS8N89LICfsq1SbegpdoAAHZLUgGEF8QN9V8WYOJ93kThCOPYt6BOB5udvOW2V9telQIAP9tJYH1KZ1NnK3P91du9qOU9XbJQGdFA2jOclHv2aieQG69IxI_pCDyoiBCRc2L6DcLP7Bpx9TP8yIqyLdABHT3vnb60HDtyf6OQuPUBw55tz0ZOCcdZUeptHRM9AEH0qkuOE5zRhyOvSbcwkyIWgwjhdI9r5is4PDstg3Ekmxht0GwAw0hu0Ekv7FxOJUMWBtKCL_VISz442A_0_mGkYfDK7oyk_bzF60K0FY2YRlLRwlxkJnl32dIOv2y3BusBaRN9cSvNN7bREXR5UZgAw3IdAK23NnzbwXnaafJD997Cf-EJhc7HktJmGDUQT_Rg5jrD4N-5m00?></g></svg>